<?xml version="1.0" encoding="utf-8" ?><svg xmlns="http://www.w3.org/2000/svg" xmlns:xlink="http://www.w3.org/1999/xlink" width="1024" height="1024" viewBox="0 0 1024 1024"><path fill="#991CE2" d="M547.016 186.139C562.293 172.593 576.168 161.966 592.466 149.8C657.748 101.073 742.477 50.56 822.38 32.6019C823.239 48.3062 825.413 63.2469 826.094 79.3513C827.783 123.541 825.697 167.793 819.859 211.628C817.572 229.259 814.741 246.539 810.729 263.844C810.13 266.427 809.445 269.564 809.062 272.172L808.951 272.563C808.273 274.566 806.165 282.165 805.918 284.225C794.642 326.123 783.574 356.691 761.334 393.595L761.348 394.362C761.529 401.529 763.135 409.359 763.887 416.501C767.886 454.507 758.538 492.167 741.824 526.172C740.358 529.154 738.618 532.522 737.518 535.643C734.87 534.54 724.357 533.64 721.302 533.632C705.13 532.375 688.897 532.113 672.693 532.847C668.57 532.998 659.247 533.333 655.262 534.021C645.818 534.643 630.753 536.838 621.427 539.249C623.925 541.219 627.736 541.886 630.817 541.645C632.965 541.479 635.74 541.081 637.869 540.753C645.571 539.567 653.744 539.412 661.377 538.175C679.64 537.42 700.027 536.633 718.243 539.134C721.642 539.675 731.254 541.447 734.297 541.564C729.379 549.698 724.196 557.611 719.291 565.736C718.5 567.046 719.134 568.052 718.571 569.461L718.241 567.985L717.529 567.897L715.454 570.541C709.802 568.921 704.11 567.449 698.381 566.128L686.625 563.697C673.63 561.845 663.185 560.181 649.914 558.908C627.259 556.41 604.485 559.649 582.202 563.219L581.731 563.73C584.659 564.132 602.959 562.594 608.675 562.483C623.427 562.196 634.665 563.576 649.143 564.704C660.883 566.691 672.76 568.092 684.471 570.211C686.837 570.769 689.029 571.27 691.429 571.722C696.57 573.015 707.132 576.586 710.948 577.292C706.1 582.762 701.202 588.186 696.253 593.565C693.765 596.235 688.389 601.664 686.54 604.194C669.331 595.46 651.237 588.595 632.566 583.714C632.378 586.015 632.754 586.424 631.583 587.883C642.466 592.174 653.176 596.891 663.687 602.025C667.097 603.667 677.368 609.254 680.289 610.041C674.135 614.385 664.384 624.003 657.667 629.222C654.502 631.682 637.341 644.796 635.605 646.735C634.852 647.536 625.625 653.902 624.249 654.856C591.475 677.577 550.727 692.049 511.964 700.179C426.517 718.102 336.559 704.588 260.008 662.642C250.736 657.561 241.425 651.033 232.559 645.085C217.847 633.741 207.474 624.076 193.59 612.178C184.18 616.561 179.542 621.001 171.277 626.791C132.655 653.844 112.797 683.554 91.2704 724.335C91.4225 723.529 91.5871 722.725 91.7644 721.924C94.1527 710.986 99.062 701.611 104.077 691.785C122.938 654.828 151.863 627.716 186.643 605.539C179.595 597.631 174.479 589.816 168.192 582.707C172.431 579.881 182.683 576.506 187.781 574.95C206.044 569.339 224.76 565.331 243.719 562.97C251.974 561.995 259.633 561.686 267.837 560.936C271.592 561.307 285.599 560.946 289.355 560.666C282.277 559.48 270.873 557.689 263.811 557.495C237.429 552.966 185.759 564.118 160.958 574.564C153.549 564.891 146.497 554.951 139.817 544.762C188.357 532.134 229.24 537.623 278.011 546.972L278.651 545.323C243.403 533.433 208.425 528.914 171.131 530.874C159.168 531.502 147.738 533.622 135.971 535.769C132.182 525.95 126.535 516.343 122.71 505.982C109.041 468.963 105.628 434.756 111.17 395.798C66.3176 304.662 36.9869 190.788 46.011 89.2458C47.3627 74.0353 50.5028 47.9486 54.6009 33.5076C65.2188 34.8618 92.4765 44.6062 103.886 48.7795C174.563 75.3601 240.508 113.131 299.195 160.647C304.146 164.597 309.5 169.036 314.225 173.263C318.917 177.461 323.057 181.936 327.986 186.002C334.209 183.855 340.623 182.246 347.038 180.014C359.609 177.333 371.757 174.665 384.498 172.864C425.889 167.325 467.903 168.498 508.921 176.336C514.86 177.509 533.304 181.402 538.927 183.509C540.754 184.172 545.299 185.918 547.016 186.139ZM279.987 206.22C230.796 161.771 179.117 119.953 118.679 91.7578C110.999 88.1747 101.835 81.9416 93.1207 82.2839C90.3414 82.3931 87.9265 83.3288 86.0236 85.3916C75.8868 96.3801 77.1826 146.716 78.2732 162.111C79.4606 178.874 80.5108 195.822 82.6577 212.491C87.8526 252.32 97.8754 291.369 112.505 328.776C114.923 335.081 120.615 351.135 124.245 356.259C125.719 354.313 126.888 352.358 128.206 350.324C145.516 323.603 165.465 298.842 187.377 275.817C214.453 247.366 246.597 226.366 279.987 206.22ZM605.999 427.488C634.6 420.372 621.804 399.034 602.149 400.648C575.308 404.935 581.943 428.036 605.999 427.488ZM313.081 428.836C318.336 427.595 323.877 425.858 326.977 420.963C328.487 418.607 328.972 415.737 328.32 413.015C325.862 402.633 312.495 400.325 303.456 401.096C298.441 402.299 292.963 404.045 290.016 408.66C288.375 411.231 287.915 414.382 288.752 417.315C291.514 427.334 304.122 429.641 313.081 428.836Z"/><path fill="#FBD656" d="M547.016 186.139C562.293 172.593 576.168 161.966 592.466 149.8C657.748 101.073 742.477 50.56 822.38 32.6019C823.239 48.3062 825.413 63.2469 826.094 79.3513C827.783 123.541 825.697 167.793 819.859 211.628C817.572 229.259 814.741 246.539 810.729 263.844C810.13 266.427 809.445 269.564 809.062 272.172L808.951 272.563C808.273 274.566 806.165 282.165 805.918 284.225C794.642 326.123 783.574 356.691 761.334 393.595C760.465 391.035 759.768 388.424 759.038 385.822C756.026 375.083 751.839 364.805 747.528 354.529C741.313 344.395 735.219 334.41 728.294 324.756C700.003 285.319 665.172 253.246 625.193 226.052C614.963 219.093 604.285 213.531 594.313 206.858C577.673 198.619 564.184 193.115 547.016 186.139Z"/><path fill="#430779" d="M547.016 186.139C562.293 172.593 576.168 161.966 592.466 149.8C657.748 101.073 742.477 50.56 822.38 32.6019C823.239 48.3062 825.413 63.2469 826.094 79.3513C827.783 123.541 825.697 167.793 819.859 211.628C817.572 229.259 814.741 246.539 810.729 263.844C810.13 266.427 809.445 269.564 809.062 272.172L808.951 272.563C808.273 274.566 806.165 282.165 805.918 284.225C794.642 326.123 783.574 356.691 761.334 393.595C760.465 391.035 759.768 388.424 759.038 385.822C756.026 375.083 751.839 364.805 747.528 354.529C752.425 346.829 756.845 336.206 760.246 327.704C772.659 296.19 781.593 263.414 786.887 229.959C790.893 206.04 803.031 108.692 790.117 91.6006C788.266 89.1514 785.695 87.4366 782.607 87.1043C754.446 84.074 689.117 128.061 665.393 145.419C655.533 152.634 645.959 160.559 636.626 168.443C627.315 176.416 618.188 184.603 609.254 192.997C605.051 196.94 599.001 203.154 594.776 206.499L594.313 206.858C577.673 198.619 564.184 193.115 547.016 186.139Z"/><path fill="#430779" d="M347.038 180.014C359.609 177.333 371.757 174.665 384.498 172.864C425.889 167.325 467.903 168.498 508.921 176.336C514.86 177.509 533.304 181.402 538.927 183.509C534.078 247.278 515.976 318.256 469.401 364.976C460.049 374.357 449.354 381.793 438.519 389.334C382.538 358.491 358.649 292.461 351.363 232.614C349.253 215.282 347.276 197.473 347.038 180.014Z"/><path fill="#430779" d="M54.6009 33.5076C65.2188 34.8618 92.4765 44.6062 103.886 48.7795C174.563 75.3601 240.508 113.131 299.195 160.647C304.146 164.597 309.5 169.036 314.225 173.263C318.917 177.461 323.057 181.936 327.986 186.002C324.613 185.641 285.458 202.975 279.987 206.22C230.796 161.771 179.117 119.953 118.679 91.7578C110.999 88.1747 101.835 81.9416 93.1207 82.2839C90.3414 82.3931 87.9265 83.3288 86.0236 85.3916C75.8868 96.3801 77.1826 146.716 78.2732 162.111C79.4606 178.874 80.5108 195.822 82.6577 212.491C87.8526 252.32 97.8754 291.369 112.505 328.776C114.923 335.081 120.615 351.135 124.245 356.259C120.002 367.177 115.95 377.951 113.043 389.301C112.517 391.352 111.865 393.817 111.17 395.798C66.3176 304.662 36.9869 190.788 46.011 89.2458C47.3627 74.0353 50.5028 47.9486 54.6009 33.5076Z"/><path fill="#F7B789" d="M186.643 605.539C214.473 589.245 262.64 573.28 294.838 576.299C256.857 584.101 227.096 592.978 193.59 612.178C184.18 616.561 179.542 621.001 171.277 626.791C132.655 653.844 112.797 683.554 91.2704 724.335C91.4225 723.529 91.5871 722.725 91.7644 721.924C94.1527 710.986 99.062 701.611 104.077 691.785C122.938 654.828 151.863 627.716 186.643 605.539Z"/><path fill="#FBD656" d="M580.759 575.078C595.643 574.95 618.3 580.133 632.566 583.714C632.378 586.015 632.754 586.424 631.583 587.883C622.302 584.842 612.866 582.299 603.314 580.263C596.244 578.756 587.49 577.266 580.759 575.078Z"/><path fill="#FBD656" d="M576.858 554.72C583.44 549.981 612.927 541.276 621.427 539.249C623.925 541.219 627.736 541.886 630.817 541.645C628.187 542.438 624.711 542.984 621.973 543.487C606.614 546.31 591.832 550.375 576.858 554.72Z"/><path fill="#F7B789" d="M278.651 545.323C281.812 546.47 285.51 547.692 288.455 549.203C284.959 548.497 281.475 547.824 278.011 546.972L278.651 545.323Z"/><path d="M585.278 353.709C586.037 353.638 586.732 353.577 587.498 353.562C628.223 352.775 668.587 386.466 667.429 428.754C666.337 468.629 629.438 500.151 590.483 500.607C586.064 500.608 581.936 500.606 577.555 500.195C520.213 494.824 484.503 429.986 523.969 383.097C540.673 363.251 560.023 355.825 585.278 353.709ZM605.999 427.488C634.6 420.372 621.804 399.034 602.149 400.648C575.308 404.935 581.943 428.036 605.999 427.488Z"/><path fill="#FBD656" d="M583.807 358.206C603.205 356.991 624.638 364.865 639.114 377.806C689.259 422.63 654.536 492.483 591.056 496.141C571.163 497.25 551.602 490.689 536.401 477.81C507.58 453.284 502.593 413.369 528.335 384.787C543.737 367.686 561.013 359.838 583.807 358.206ZM605.999 427.488C634.6 420.372 621.804 399.034 602.149 400.648C575.308 404.935 581.943 428.036 605.999 427.488Z"/><path d="M583.802 387.174C593.862 385.782 606.129 389.287 613.987 395.434C643.917 418.849 627.682 456.285 593.126 461.543C589.485 461.717 585.788 461.806 582.15 461.525C565.052 460.205 548.445 447.785 545.724 430.21C544.233 420.662 546.667 410.916 552.473 403.19C560.715 392.247 570.89 389.057 583.802 387.174ZM605.999 427.488C634.6 420.372 621.804 399.034 602.149 400.648C575.308 404.935 581.943 428.036 605.999 427.488Z"/><path d="M289.276 353.716C307.75 352.677 327.824 359.418 342.507 370.619C358.303 382.53 368.598 400.334 371.042 419.966C373.253 437.723 368.096 457.557 356.962 471.598C340.769 492.02 322.137 498.469 297.202 501.435C255.684 501.676 216.742 475.161 213.697 431.55C212.519 412.707 218.822 394.159 231.239 379.935C246.647 362.209 266.448 355.316 289.276 353.716ZM313.081 428.836C318.336 427.595 323.877 425.858 326.977 420.963C328.487 418.607 328.972 415.737 328.32 413.015C325.862 402.633 312.495 400.325 303.456 401.096C298.441 402.299 292.963 404.045 290.016 408.66C288.375 411.231 287.915 414.382 288.752 417.315C291.514 427.334 304.122 429.641 313.081 428.836Z"/><path fill="#FBD656" d="M288.758 358.2C325.295 355.469 365.786 386.767 366.863 424.76C367.387 443.279 362.628 458.917 349.876 472.72C337.159 486.484 316.43 495.949 297.711 496.608C275.164 496.682 261.558 493.127 243.975 478.936C201.344 444.528 214.9 379.078 266.281 362.339C273.996 359.826 280.684 358.844 288.758 358.2ZM313.081 428.836C318.336 427.595 323.877 425.858 326.977 420.963C328.487 418.607 328.972 415.737 328.32 413.015C325.862 402.633 312.495 400.325 303.456 401.096C298.441 402.299 292.963 404.045 290.016 408.66C288.375 411.231 287.915 414.382 288.752 417.315C291.514 427.334 304.122 429.641 313.081 428.836Z"/><path d="M293.331 389.692C302.529 388.347 315.424 393.303 322.414 399.219C329.323 405.065 333.826 413.095 334.481 422.181C335.11 431.652 331.914 440.979 325.61 448.076C318.002 456.745 308.176 460.823 296.828 461.529C277.352 461.819 257.114 451.242 254.285 430.391C253.02 421.404 255.43 412.287 260.969 405.099C269.208 394.47 280.594 391.28 293.331 389.692ZM313.081 428.836C318.336 427.595 323.877 425.858 326.977 420.963C328.487 418.607 328.972 415.737 328.32 413.015C325.862 402.633 312.495 400.325 303.456 401.096C298.441 402.299 292.963 404.045 290.016 408.66C288.375 411.231 287.915 414.382 288.752 417.315C291.514 427.334 304.122 429.641 313.081 428.836Z"/><path d="M438.299 574.373C423.58 573.398 405.829 559.649 396.236 549.208C390.902 543.402 389.095 534.172 396.443 529.109C412.319 518.17 435.028 517.605 453.541 519.395C463.389 520.37 487.642 525.707 484.776 539.548C481.717 554.324 452.578 572.307 439.162 574.456L438.299 574.373Z"/><path fill="#430779" d="M429.455 524.708C440.168 523.146 452.178 525.305 462.7 527.392C498.845 534.563 460.131 558.299 446.323 565.293C444.449 566.256 440.755 568.183 438.712 568.381C430.416 568.348 417.505 559.803 411.052 554.812C383.66 533.625 410.836 526.614 429.455 524.708Z"/><path fill="#430779" d="M439.755 600.359C439.311 600.929 438.856 601.49 438.389 602.042C428.421 613.91 414.088 621.256 398.632 622.416C370.126 624.799 341.637 606.877 332.892 579.816C331.884 576.694 329.942 574.286 329.647 570.791C330.122 571.037 333.401 577.379 334.248 578.662C353.569 607.925 392.783 617.425 422.479 598.064C431.574 592.134 436.23 585.076 438.299 574.373L439.162 574.456C450.656 605.164 481.529 614.188 511.136 604.605C528.585 599.084 543.144 586.89 551.64 570.68C548.233 585.786 544.159 594.562 532.431 605.307C519.217 617.579 501.571 623.935 483.566 622.907C462.905 621.87 452.747 614.827 439.755 600.359Z"/><path fill="#430779" d="M232.559 645.085C241.425 651.033 250.736 657.561 260.008 662.642C336.559 704.588 426.517 718.102 511.964 700.179C550.727 692.049 591.475 677.577 624.249 654.856C625.625 653.902 634.852 647.536 635.605 646.735C645.329 663.693 656.009 680.787 664.873 698.247C668.534 705.458 690.186 751.239 693.092 753.407L693.068 754.119C700.74 765.322 706.602 788.91 710.589 802.449C715.295 817.965 719.701 833.57 723.805 849.256C724.976 853.91 729.186 872.6 730.731 876.604C731.333 879.885 732.712 885.721 733.865 888.747L747.259 975.915C748.204 992.958 748.516 1006.89 748.498 1024L509.188 1024L368.012 1024L130.161 1024C129.626 1012.37 130.618 996.408 131.419 984.624C136.814 905.207 157.934 823.511 185.892 749.11C189.361 736.492 200.259 713.052 205.802 700.617C213.792 682.689 222.596 661.759 232.559 645.085Z"/><path fill="#991CE2" d="M185.892 749.11C194.647 759.735 203.396 770.622 213.15 780.35C245.425 812.54 291.64 842.179 335.024 856.637C337.035 897.554 343.007 938.179 352.856 977.943C356.208 991.407 361.925 1011.4 368.012 1024L130.161 1024C129.626 1012.37 130.618 996.408 131.419 984.624C136.814 905.207 157.934 823.511 185.892 749.11Z"/><path fill="#991CE2" d="M693.068 754.119C700.74 765.322 706.602 788.91 710.589 802.449C715.295 817.965 719.701 833.57 723.805 849.256C724.976 853.91 729.186 872.6 730.731 876.604C731.333 879.885 732.712 885.721 733.865 888.747L747.259 975.915C748.204 992.958 748.516 1006.89 748.498 1024L509.188 1024C512.567 1014.63 515.893 1006.15 518.829 996.59C528.651 964.588 533.528 932.915 535.996 899.553C536.986 886.171 538.536 873.244 539.043 859.63C540.419 858.747 545.211 857.19 547.218 856.474C594.271 839.698 643.691 808.903 678.525 773.03C682.692 768.739 690.783 758.957 693.068 754.119Z"/><path fill="#FBD656" d="M335.024 856.637C347.474 860.421 360.203 864.228 372.919 867C413.95 875.781 456.249 876.925 497.694 870.372C509.43 868.509 528.38 864.673 539.043 859.63C538.536 873.244 536.986 886.171 535.996 899.553C533.528 932.915 528.651 964.588 518.829 996.59C515.893 1006.15 512.567 1014.63 509.188 1024L368.012 1024C361.925 1011.4 356.208 991.407 352.856 977.943C343.007 938.179 337.035 897.554 335.024 856.637Z"/><path fill="#FEFEFE" fill-opacity="0.011764706" d="M809.062 272.172C809.569 271.543 810.007 270.925 810.383 270.209C810.523 272.497 810.039 273.369 811.244 274.459L812.192 274.421C812.421 273.42 812.588 272.61 812.755 271.597L814.084 272.354C817.582 270.674 815.737 262.415 816.811 259.426C817.924 256.326 821.54 253.728 821.706 250.041C821.812 246.64 819.607 241.872 820.435 238.612C821.643 233.858 824.996 234.507 825.549 228.924C825.933 225.055 824.392 214.574 826.34 212.154C828.723 214.405 833.591 217.851 837.051 216.557C840.947 215.1 839.987 211.049 844.851 211.625C846.48 213.255 847.358 215.401 848.317 217.462C850.167 221.438 854.515 224.437 855.873 228.617C858.434 236.501 855.208 245.682 859.856 252.718C862.796 257.168 861.019 265.293 866.477 267.539C871.42 266.979 872.251 261.287 875.554 262.661C875.941 263.487 878.831 269.545 878.874 269.812C879.556 273.97 875.732 275.666 881.232 277.989C883.442 276.869 884.028 273.718 883.374 271.54C883.09 270.595 885.479 267.255 886.054 266.784C890.25 263.353 894.504 247.549 898.931 246.556L899.621 246.871C898.866 248.655 898.688 249.4 898.383 251.32C897.129 252.173 897.014 252.24 895.613 252.816C894.784 257.454 896.036 259.165 891.907 261.35C890.578 263.457 890.755 265.759 890.806 268.261C889.786 269.222 889.169 269.108 887.737 269.294C884.982 272.418 887.847 275.187 886.523 277.589C885.484 277.889 884.625 278.104 883.57 278.342C880.188 282.696 887.616 287.291 879.669 291.881C879.333 292.689 879.596 310.573 879.526 313.463C880.234 314.39 880.202 314.314 881.279 314.794C880.415 317.52 880.633 320.471 879.761 322.901C878.856 319.62 880.335 316.659 878.87 314.636L877.632 314.633C876.679 315.598 876.776 316.14 876.527 317.473L876.419 318.024C875.904 320.758 875.537 324.469 877.153 326.843C878.387 327.61 878.292 327.621 879.718 327.795C875.279 362.276 874.429 387.643 879.898 421.851C883.357 443.605 887.287 465.985 889.266 487.861C890.425 500.67 890.888 514.019 891.86 527.024C892.65 565.534 891.387 598.517 884.777 636.7C879.479 666.212 870.317 700.978 859.058 728.54C847.31 759.809 831.224 789.27 811.273 816.059C787.116 845.998 767.091 868.181 733.865 888.747C732.712 885.721 731.333 879.885 730.731 876.604C731.447 873.359 725.064 851.415 724.105 846.739C723.509 843.946 721.883 840.226 721.616 837.431C721.231 833.391 723.907 832.236 721.951 827.903L721.132 828.391C720.627 829.679 720.568 831.216 720.417 832.616C718.631 831.355 701.033 756.758 693.092 753.407C690.186 751.239 668.534 705.458 664.873 698.247C656.009 680.787 645.329 663.693 635.605 646.735C637.341 644.796 654.502 631.682 657.667 629.222C664.384 624.003 674.135 614.385 680.289 610.041C685.339 611.098 692.592 617.334 697.124 619.788C729.814 637.489 757.263 662.927 780.902 691.371C782.253 692.996 785.091 698.078 786.464 698.898C786.052 697.183 784.708 695.66 783.906 694.058C777.982 682.234 769.492 671.94 760.957 661.941C740.27 637.708 714.131 619.765 686.54 604.194C688.389 601.664 693.765 596.235 696.253 593.565C701.202 588.186 706.1 582.762 710.948 577.292C719.577 580.472 729.043 583.679 737.431 587.221C765.924 599.298 792.365 615.732 815.807 635.935C821.71 641.121 828.985 648.588 834.584 654.255L834.833 654.131C831.05 647.751 821.603 638.61 817.048 632.151C814.063 627.917 804.785 621.341 802.392 617.87C802.584 617.722 802.777 617.574 802.969 617.426C805.45 619.169 811.597 623.347 814.556 623.698L814.904 623.079C810.99 620.645 792.157 603.904 788.175 604.197C788.174 604.701 788.173 605.205 788.172 605.708L786.557 605.777C765.353 590.767 744.092 580.158 719.771 571.204C718.615 570.778 718.867 570.533 718.571 569.461C719.134 568.052 718.5 567.046 719.291 565.736C724.196 557.611 729.379 549.698 734.297 541.564C737.782 541.928 745.544 543.861 749.29 544.675C775.183 550.302 809.263 561.585 832.062 575.163L831.225 575.61C828.122 574.163 824.856 573.997 822.657 573.013C818.334 571.079 818.678 569.682 812.55 571.163C814.331 572.079 814.849 572.404 816.753 572.907L818.585 572.119C820.105 572.829 819.708 572.32 820.515 573.469L818.969 574.122C819.872 574.393 819.845 574.338 820.561 575.011L819.211 576.167C825.65 577.88 825.595 573.311 832.813 580.047C837.719 580.941 833.154 584.12 839.815 584.266C843.051 586.24 849.617 589.932 852.244 591.961L853.25 591.921C853.934 589.413 851.808 592.397 853.511 589.067C855.213 590.363 862.104 596.276 863.004 596.236C861.435 593.53 850.265 583.829 847.291 581.321C815.09 554.169 778.184 542.814 737.518 535.643C738.618 532.522 740.358 529.154 741.824 526.172C758.538 492.167 767.886 454.507 763.887 416.501C763.135 409.359 761.529 401.529 761.348 394.362L761.334 393.595C783.574 356.691 794.642 326.123 805.918 284.225C806.791 286.621 805.978 287.8 807.085 289.368C809.237 288.078 808.555 288.026 811.147 287.44C812.89 284.727 811.475 277.07 809.25 274.879C809.388 273.67 809.341 273.733 808.951 272.563L809.062 272.172Z"/><path fill="#991CE2" d="M879.898 421.851C886.195 420.199 893.028 420.335 899.351 420.377C919.813 420.51 939.808 426.394 957.727 436.083C959.449 437.014 966.319 441.176 967.767 440.615C971.038 456.806 972.902 476.111 974.47 492.604C976.408 512.983 977.792 534.116 977.864 554.579C977.888 561.327 978.268 573.252 977.62 579.624C976.907 614.236 971.035 648.822 963.877 682.557C963.101 686.21 962.125 689.983 961.539 693.65C957.802 688.554 954.017 683.492 950.185 678.467C936.508 660.724 921.18 650.178 900.526 641.747C895.84 639.834 889.733 637.337 884.777 636.7C891.387 598.517 892.65 565.534 891.86 527.024C890.888 514.019 890.425 500.67 889.266 487.861C887.287 465.985 883.357 443.605 879.898 421.851Z"/><path fill="#430779" d="M879.898 421.851C886.195 420.199 893.028 420.335 899.351 420.377C919.813 420.51 939.808 426.394 957.727 436.083C959.449 437.014 966.319 441.176 967.767 440.615C971.038 456.806 972.902 476.111 974.47 492.604C976.408 512.983 977.792 534.116 977.864 554.579C977.888 561.327 978.268 573.252 977.62 579.624C977.38 573.973 977.551 567.066 977.541 561.318C971.564 557.167 966.306 551.702 960.62 547.161C944.059 533.936 923.527 526.182 902.517 524.006C899.033 523.646 896.299 522.21 892.78 523.218C891.518 524.653 891.951 524.541 891.86 527.024C890.888 514.019 890.425 500.67 889.266 487.861C887.287 465.985 883.357 443.605 879.898 421.851Z"/><path fill="#991CE2" d="M859.058 728.54C864.217 732.707 870.647 735.941 876.138 739.755C890.468 749.709 900.455 764.464 908.935 779.442C911.823 784.489 916.96 798.69 919.609 802.058C902.396 837.646 875.737 871.446 848.583 900.097C841.771 907.285 833.462 915.515 825.584 921.469C822.795 924.505 817.574 928.497 814.272 931.266C795.961 946.621 775.085 960.459 753.843 971.392C751.505 972.595 747.626 973.718 747.259 975.915L733.865 888.747C767.091 868.181 787.116 845.998 811.273 816.059C831.224 789.27 847.31 759.809 859.058 728.54Z"/><path fill="#430779" d="M811.273 816.059C824.818 839.419 831.888 870.929 828.865 897.431C828.288 902.49 825.449 918.22 825.584 921.469C822.795 924.505 817.574 928.497 814.272 931.266C795.961 946.621 775.085 960.459 753.843 971.392C751.505 972.595 747.626 973.718 747.259 975.915L733.865 888.747C767.091 868.181 787.116 845.998 811.273 816.059Z"/><path fill="#991CE2" d="M888.232 290.351C906.527 296.661 923.906 303.753 939.713 315.11C944.745 318.726 958.327 330.828 962.058 332.717C957.442 359.998 959.794 384.831 963.493 412.069C964.711 421.037 966.877 431.854 967.767 440.615C966.319 441.176 959.449 437.014 957.727 436.083C939.808 426.394 919.813 420.51 899.351 420.377C893.028 420.335 886.195 420.199 879.898 421.851C874.429 387.643 875.279 362.276 879.718 327.795C882.073 314.817 884.328 302.933 888.232 290.351Z"/><path fill="#430779" d="M884.777 636.7C889.733 637.337 895.84 639.834 900.526 641.747C921.18 650.178 936.508 660.724 950.185 678.467C954.017 683.492 957.802 688.554 961.539 693.65C958 705.691 955.097 717.318 951.159 729.347C942.751 754.445 932.195 778.772 919.609 802.058C916.96 798.69 911.823 784.489 908.935 779.442C900.455 764.464 890.468 749.709 876.138 739.755C870.647 735.941 864.217 732.707 859.058 728.54C870.317 700.978 879.479 666.212 884.777 636.7Z"/><path fill="#430779" d="M888.232 290.351C899.76 256.081 916.437 225.229 950.245 208.074C978.078 193.951 1021.54 198.979 1006.03 240.442C1000.12 256.252 989.457 269.503 980.601 283.685C970.603 299.515 966.109 314.657 962.058 332.717C958.327 330.828 944.745 318.726 939.713 315.11C923.906 303.753 906.527 296.661 888.232 290.351Z"/><defs><linearGradient id="gradient_0" gradientUnits="userSpaceOnUse" x1="151.65262" y1="629.25409" x2="127.32882" y2="591.45361"><stop offset="0" stop-color="#FFC165" stop-opacity="0.96078432"/><stop offset="1" stop-color="#EDA8AB"/></linearGradient></defs><path fill="url(#gradient_0)" d="M160.958 574.564C185.759 564.118 237.429 552.966 263.811 557.495C261.719 558.265 261.248 558.205 259.006 558.046L258.395 558.419L259.271 560.264C262.991 559.52 264.264 559.764 267.837 560.936C259.633 561.686 251.974 561.995 243.719 562.97C224.76 565.331 206.044 569.339 187.781 574.95C182.683 576.506 172.431 579.881 168.192 582.707C166.049 583.971 162.396 585.507 160.085 586.501C119.949 603.758 83.4415 628.39 51.0958 657.663C42.7486 665.217 35.6379 674.237 26.2994 681.19C30.3135 674.793 40.1768 663.272 45.1801 657.338C74.8689 622.124 118.661 593.072 160.958 574.564Z"/><path fill="#F7B789" fill-opacity="0.98823529" d="M135.971 535.769C147.738 533.622 159.168 531.502 171.131 530.874C208.425 528.914 243.403 533.433 278.651 545.323L278.011 546.972C229.24 537.623 188.357 532.134 139.817 544.762C109.637 550.396 77.6035 564.656 52.0953 581.549C43.3062 587.369 35.1801 594.252 26.3761 600.025C44.122 575.78 86.8544 551.591 114.997 542.183C122.149 539.792 128.439 537.055 135.971 535.769Z"/><defs><linearGradient id="gradient_1" gradientUnits="userSpaceOnUse" x1="707.42151" y1="642.84406" x2="719.97528" y2="626.18976"><stop offset="0" stop-color="#F8B68B" stop-opacity="0.98039216"/><stop offset="1" stop-color="#FEC67D"/></linearGradient></defs><path fill="url(#gradient_1)" d="M632.566 583.714C651.237 588.595 669.331 595.46 686.54 604.194C714.131 619.765 740.27 637.708 760.957 661.941C769.492 671.94 777.982 682.234 783.906 694.058C784.708 695.66 786.052 697.183 786.464 698.898C785.091 698.078 782.253 692.996 780.902 691.371C757.263 662.927 729.814 637.489 697.124 619.788C692.592 617.334 685.339 611.098 680.289 610.041C677.368 609.254 667.097 603.667 663.687 602.025C653.176 596.891 642.466 592.174 631.583 587.883C632.754 586.424 632.378 586.015 632.566 583.714Z"/><defs><linearGradient id="gradient_2" gradientUnits="userSpaceOnUse" x1="763.23724" y1="611.90698" x2="771.79236" y2="596.77478"><stop offset="0" stop-color="#FBBE7A" stop-opacity="0.94509804"/><stop offset="1" stop-color="#FEC982"/></linearGradient></defs><path fill="url(#gradient_2)" d="M698.381 566.128C704.11 567.449 709.802 568.921 715.454 570.541L717.529 567.897L718.241 567.985L718.571 569.461C718.867 570.533 718.615 570.778 719.771 571.204C744.092 580.158 765.353 590.767 786.557 605.777C791.35 609.476 797.525 614.524 802.392 617.87C804.785 621.341 814.063 627.917 817.048 632.151C821.603 638.61 831.05 647.751 834.833 654.131L834.584 654.255C828.985 648.588 821.71 641.121 815.807 635.935C792.365 615.732 765.924 599.298 737.431 587.221C729.043 583.679 719.577 580.472 710.948 577.292C707.132 576.586 696.57 573.015 691.429 571.722C696.03 569.23 693.659 572.311 698.029 566.583L698.381 566.128Z"/><path fill="#F7B789" fill-opacity="0.98823529" d="M721.302 533.632C724.357 533.64 734.87 534.54 737.518 535.643C778.184 542.814 815.09 554.169 847.291 581.321C850.265 583.829 861.435 593.53 863.004 596.236C862.104 596.276 855.213 590.363 853.511 589.067C846.845 584.466 839.144 579.046 832.062 575.163C809.263 561.585 775.183 550.302 749.29 544.675C745.544 543.861 737.782 541.928 734.297 541.564C731.254 541.447 721.642 539.675 718.243 539.134C719.032 537.238 720.292 535.457 721.302 533.632Z"/><path fill="#FBD656" fill-opacity="0.40392157" d="M655.262 534.021C659.247 533.333 668.57 532.998 672.693 532.847C688.897 532.113 705.13 532.375 721.302 533.632C720.292 535.457 719.032 537.238 718.243 539.134C700.027 536.633 679.64 537.42 661.377 538.175C661.154 537.662 661.211 537.139 661.292 536.601C659.695 535.058 657.475 534.685 655.262 534.021Z"/><path fill="#FBD656" fill-opacity="0.97647059" d="M649.143 564.704C634.665 563.576 623.427 562.196 608.675 562.483C602.959 562.594 584.659 564.132 581.731 563.73L582.202 563.219C604.485 559.649 627.259 556.41 649.914 558.908C649.674 560.431 649.58 563.991 649.143 564.704Z"/><path fill="#F7B789" fill-opacity="0.98431373" d="M649.914 558.908C663.185 560.181 673.63 561.845 686.625 563.697L685.693 564.749L686.446 565.214L686.654 565.723L686.192 565.949C685.009 566.538 684.384 566.702 683.646 567.789C683.963 568.558 684.236 569.189 684.598 569.937L684.471 570.211C672.76 568.092 660.883 566.691 649.143 564.704C649.58 563.991 649.674 560.431 649.914 558.908Z"/><path fill="#FBD656" fill-opacity="0.98431373" d="M621.427 539.249C630.753 536.838 645.818 534.643 655.262 534.021C657.475 534.685 659.695 535.058 661.292 536.601C661.211 537.139 661.154 537.662 661.377 538.175C653.744 539.412 645.571 539.567 637.869 540.753C635.74 541.081 632.965 541.479 630.817 541.645C627.736 541.886 623.925 541.219 621.427 539.249Z"/><path fill="#FEFEFE" fill-opacity="0.10196079" d="M853.511 589.067C851.808 592.397 853.934 589.413 853.25 591.921L852.244 591.961C849.617 589.932 843.051 586.24 839.815 584.266C833.154 584.12 837.719 580.941 832.813 580.047C825.595 573.311 825.65 577.88 819.211 576.167L820.561 575.011C819.845 574.338 819.872 574.393 818.969 574.122L820.515 573.469C819.708 572.32 820.105 572.829 818.585 572.119L816.753 572.907C814.849 572.404 814.331 572.079 812.55 571.163C818.678 569.682 818.334 571.079 822.657 573.013C824.856 573.997 828.122 574.163 831.225 575.61L832.062 575.163C839.144 579.046 846.845 584.466 853.511 589.067Z"/><path fill="#FEFEFE" fill-opacity="0.13725491" d="M786.557 605.777L788.172 605.708C788.173 605.205 788.174 604.701 788.175 604.197C792.157 603.904 810.99 620.645 814.904 623.079L814.556 623.698C811.597 623.347 805.45 619.169 802.969 617.426C802.777 617.574 802.584 617.722 802.392 617.87C797.525 614.524 791.35 609.476 786.557 605.777Z"/><path fill="#FBD656" fill-opacity="0.80784315" d="M686.625 563.697L698.381 566.128L698.029 566.583C693.659 572.311 696.03 569.23 691.429 571.722C689.029 571.27 686.837 570.769 684.471 570.211L684.598 569.937C684.236 569.189 683.963 568.558 683.646 567.789C684.384 566.702 685.009 566.538 686.192 565.949L686.654 565.723L686.446 565.214L685.693 564.749L686.625 563.697Z"/><path fill="#FBD656" fill-opacity="0.95294118" d="M263.811 557.495C270.873 557.689 282.277 559.48 289.355 560.666C285.599 560.946 271.592 561.307 267.837 560.936C264.264 559.764 262.991 559.52 259.271 560.264L258.395 558.419L259.006 558.046C261.248 558.205 261.719 558.265 263.811 557.495Z"/></svg>